# xmcd
#
# Track frame offsets:
#	150
#	13077
#	24615
#	37442
#	54476
#	70897
#	109565
#	117033
#	128256
#	143536
#	155037
#	170800
#	181234
#	195195
#	207489
#	222074
#	234242
#	245696
#	258405
#	272348
#
# Disc length: 3871 seconds
#
# Revision: 0
# Processed by: cddbd v1.5.2PL0 Copyright (c) Steve Scherf et al.
# Submitted via: EasyCDDAExtractor 16.0.8.2
#
DISCID=160f1d14
DTITLE=Συλλογικός δίσκος - Όλα τα ρεμπέτικα 19
DYEAR=2008
DGENRE=Ρεμπέτικη
TTITLE0=Μπέλλου Σωτηρία - Παραστράτησα για σένα [Κ. Καπλάνης]
TTITLE1=Μητσάκης Γιώργος - Τα κάστρα του Γεντί Κουλέ (Δραπέτης τού)[Γ. Μητσάκη
TTITLE1=ς]
TTITLE2=Γλυκερία - Μπουρνοβαλιά [παραδ., διασκ. Σ. Φωτιάδης]
TTITLE3=Δημητριανάκης Μανώλης - Τα χανουμάκια [Κ. Καρίπης-Σ. Γαβαλάς]
TTITLE4=Μαριώ - Τα ξένα χέρια [Β. Τσιτσάνης]
TTITLE5=Τσομίδης Ιορδάνης - Το μινόρε της αυγής [Σ. Περιστέρης-Μ. Μάτσας]
TTITLE6=Λαμπράκη Χαρούλα-Τα παιδιά από την Πάτρα - Το πάπλωμα [Γ. Μητσάκης]
TTITLE7=Δασκαλάκης Μιχάλης - Ο λαγός [Γ. Μητσάκης]
TTITLE8=Νταράλας Λουκάς - Το φτωχομπούζουκο [Μ. Χιώτης]
TTITLE9=Γκολές Μπάμπης - Δυό ματάκια παιχνιδιάρικα[ΚΚανούλας-ΣΠαγιουμτζής-ΒΦίλ
TTITLE9=ης]
TTITLE10=Ιακωβίδης Αγάθωνας - Η μπαμπέσα [Β. Παπάζογλου]
TTITLE11=Γενίτσαρης Μιχάλης - Δυό καμάκια Πειραιώτες [Μ.Γενίτσαρης-ίδιος/Π.Μαγ
TTITLE11=γανάρης]
TTITLE12=Κωστή Έλενα - Το κακόμοιρο παιδί [Κ. Καπλάνης]
TTITLE13=Ευσταθίου Δημήτρης - Μπατίρης εγεννήθηκσ [Δ. Ευσταθίου]
TTITLE14=Καλημέρη Λιζέτα - Μην ορκίζεσαι βρε ψεύτρα [Δ. Σέμσης-Γ. Πετροπουλέας
TTITLE14=]
TTITLE15=Τσέρτος Μπάμπης - Σκιάθος [Κ. Καπλάνης-Ευγ. Δρούζα]
TTITLE16=Περγιάλης Νίκος - Ο φουκαράς [Μ. Βαμβακάρης]
TTITLE17=Μουφλουζέλης Γιώργος - Ο καϊκτσής (καϊξής)[Γ. Μουφλουζέλης]
TTITLE18=Βαμβακάρης Μάρκος - Ο χασάπης [Μ. Βαμβακάρης]
TTITLE19=Παπαγκίκα Μαρίκα - Μπραΐλα [λαϊκό Σμύρνης]
EXTD=
EXTT0=
EXTT1=
EXTT2=
EXTT3=
EXTT4=
EXTT5=
EXTT6=
EXTT7=
EXTT8=
EXTT9=
EXTT10=
EXTT11=
EXTT12=
EXTT13=
EXTT14=
EXTT15=
EXTT16=
EXTT17=
EXTT18=
EXTT19=
PLAYORDER=
